<svg width="101.64" height="28" version="1.1" viewBox="0 0 26.893 7.4083" xmlns="http://www.w3.org/2000/svg">
 <g transform="translate(-42.677 -139.97)">
  <g transform="matrix(.039062 0 0 .039062 43.044 140.45)">
   <path d="m44.794 14.826v96.762h38.705v38.705h58.057v-38.705h19.352v38.705h58.057v-38.705h19.352v38.705h290.29v-135.47h-406.4zm19.352 19.352h19.352v38.705h19.352v-38.705h19.352v96.762h-19.352v-38.705h-38.705zm77.41 0h19.352v38.705h19.352v-38.705h19.352v96.762h-19.352v-38.705h-38.705zm77.41 0h19.352v38.705h19.352v-38.705h19.352v96.762h-19.352v-38.705h-38.705zm77.41 0h19.352v38.705h19.352v-38.705h19.352v96.762h-19.352v-38.705h-19.352v38.705h-19.352zm77.41 0h58.057v19.352h-38.705v19.352h38.705v58.057h-58.057v-19.352h38.705v-19.352h-38.705zm77.41 0h58.057v58.057h-38.705v19.352h38.705v19.352h-58.057v-58.057h38.705v-19.352h-38.705z" fill="#191919" style="font-feature-settings:normal;font-variant-caps:normal;font-variant-ligatures:normal;font-variant-numeric:normal"/>
   <g fill="#29af0a">
    <path transform="matrix(.26458 0 0 .26458 40.56 138.92)" d="m966.86-395.86v365.71h73.143v-146.29h73.143v146.29h73.143v-365.71h-73.143v146.29h-73.143v-146.29z"/>
    <path transform="matrix(.26458 0 0 .26458 40.56 138.92)" d="m1259.4-395.86v219.43h146.29v73.143h-146.29v73.143h219.43v-219.43h-146.29v-73.143h146.29v-73.143z"/>
    <path transform="matrix(.26458 0 0 .26458 40.56 138.92)" d="m1552-395.86v73.143h146.29v73.143h-146.29v219.43h219.43v-73.143h-146.29v-73.143h146.29v-219.43z"/>
   </g>
   <g fill="#fff">
    <path transform="matrix(.26458 0 0 .26458 40.56 138.92)" d="m674.29-395.86v219.43h146.29v146.29h73.143v-365.71h-73.143v146.29h-73.143v-146.29z"/>
    <path d="m141.56 34.179v58.057h38.705v38.705h19.352v-96.762h-19.352v38.705h-19.352v-38.705z"/>
    <path d="m64.146 34.179v58.057h38.705v38.705h19.352v-96.762h-19.352v38.705h-19.352v-38.705z"/>
   </g>
   <g transform="translate(-5.2928 -5.1623)">
    <rect x="553.37" y="19.989" width="76.8" height="25.6" fill="#06c" stroke-width="2.0853"/>
    <rect x="553.37" y="45.589" width="76.8" height="25.6" fill="#fc0" stroke-width="1.6946"/>
   </g>
  </g>
 </g>
</svg>
